<svg xmlns="http://www.w3.org/2000/svg" viewBox="0 0 1080 1080" width="1080" height="1080">
  <defs>
    <radialGradient id="bg" cx="50%" cy="45%" r="55%">
      <stop offset="0%" stop-color="#f97316" stop-opacity="0.07"/>
      <stop offset="100%" stop-color="#f97316" stop-opacity="0"/>
    </radialGradient>
  </defs>

  <!-- ── Background ── -->
  <rect width="1080" height="1080" fill="#070707"/>
  <rect width="1080" height="1080" fill="url(#bg)"/>

  <!-- ══════════════════════════════════════════
       BAND 1: Header  y 0–100
       ══════════════════════════════════════════ -->

  <!-- Regulation logo -->
  <svg x="28" y="20" width="58" height="58" viewBox="0 0 100 100">
    <rect width="100" height="100" fill="#000" rx="8"/>
    <circle cx="50" cy="50" r="43" fill="none" stroke="#fff" stroke-width="11"/>
    <path fill="#fff" d="M50 20 C57 20 63 25 63 31 C63 36 68 38 76 39 C85 40 86 49 82 54 C79 58 72 59 70 65 C68 70 70 76 68 80 C66 84 60 85 56 80 C53 76 50 75 50 75 C50 75 47 76 44 80 C40 85 34 84 32 80 C30 76 32 70 30 65 C28 59 21 58 18 54 C14 49 15 40 24 39 C32 38 37 36 37 31 C37 25 43 20 50 20Z"/>
  </svg>

  <text x="100" y="52" font-family="Georgia,serif" font-size="28" font-weight="900" fill="#fff" letter-spacing="-0.5">GASSY GOO'S BINGO</text>
  <text x="100" y="72" font-family="'Courier New',monospace" font-size="11" fill="#444" letter-spacing="2">UNOFFICIAL FAN GAME</text>

  <!-- Orange accent line -->
  <rect x="28" y="88" width="1024" height="2" rx="1" fill="#f97316" opacity="0.5"/>

  <!-- ══════════════════════════════════════════
       BAND 2: Hook  y 100–164
       ══════════════════════════════════════════ -->

  <text x="540" y="132" text-anchor="middle" font-family="Georgia,serif" font-size="30" font-weight="900" fill="#fff">Sloppy Joe's Bingo, but</text>
  <text x="540" y="162" text-anchor="middle" font-family="Georgia,serif" font-size="30" font-weight="900" fill="#f97316">make it Regulation lore.</text>

  <!-- ══════════════════════════════════════════
       BAND 3: Bingo card  y 172–612
       Card: x=28, w=1024, cell w=204.8≈205
       Headers: y 172–222 (50px)
       5 rows of 78px each: y 222–612
       ══════════════════════════════════════════ -->

  <!-- Card background -->
  <rect x="28" y="172" width="1024" height="440" rx="6" fill="#0b0b0b" stroke="#181818" stroke-width="1.5"/>

  <!-- Column headers -->
  <!-- B  x=28–233 -->
  <rect x="28"  y="172" width="205" height="50" fill="#e74c3c" rx="5"/>
  <text x="130" y="207" text-anchor="middle" font-family="Georgia,serif" font-size="30" font-weight="900" fill="#fff">B</text>
  <!-- I  x=233–438 -->
  <rect x="233" y="172" width="205" height="50" fill="#e8c800"/>
  <text x="335" y="207" text-anchor="middle" font-family="Georgia,serif" font-size="30" font-weight="900" fill="#000">I</text>
  <!-- N  x=438–643 -->
  <rect x="438" y="172" width="205" height="50" fill="#f97316"/>
  <text x="540" y="207" text-anchor="middle" font-family="Georgia,serif" font-size="30" font-weight="900" fill="#fff">N</text>
  <!-- G  x=643–848 -->
  <rect x="643" y="172" width="205" height="50" fill="#2ecc71"/>
  <text x="745" y="207" text-anchor="middle" font-family="Georgia,serif" font-size="30" font-weight="900" fill="#000">G</text>
  <!-- O  x=848–1052 -->
  <rect x="848" y="172" width="204" height="50" fill="#e056a0" rx="5"/>
  <text x="950" y="207" text-anchor="middle" font-family="Georgia,serif" font-size="30" font-weight="900" fill="#fff">O</text>

  <!-- Grid lines -->
  <g stroke="#161616" stroke-width="1">
    <line x1="28"  y1="222" x2="1052" y2="222"/>
    <line x1="28"  y1="300" x2="1052" y2="300"/>
    <line x1="28"  y1="378" x2="1052" y2="378"/>
    <line x1="28"  y1="456" x2="1052" y2="456"/>
    <line x1="28"  y1="534" x2="1052" y2="534"/>
    <line x1="233" y1="222" x2="233"  y2="612"/>
    <line x1="438" y1="222" x2="438"  y2="612"/>
    <line x1="643" y1="222" x2="643"  y2="612"/>
    <line x1="848" y1="222" x2="848"  y2="612"/>
  </g>

  <!-- Cell text helper: centres are col × 205 + 28 + 102 -->
  <!-- cx: B=130, I=335, N=540, G=745, O=950 -->
  <!-- cy: R1=261, R2=339, R3=417, R4=495, R5=573 -->

  <!-- ── ROW 1 ── -->
  <!-- B1 Swan Attack DAUBED -->
  <circle cx="130" cy="261" r="38" fill="#f97316" opacity="0.32"/>
  <text x="130" y="256" text-anchor="middle" font-family="sans-serif" font-size="11" font-weight="700" fill="#fff">Swan</text>
  <text x="130" y="270" text-anchor="middle" font-family="sans-serif" font-size="11" font-weight="700" fill="#fff">Attack</text>
  <!-- I1 -->
  <text x="335" y="265" text-anchor="middle" font-family="sans-serif" font-size="11" font-weight="600" fill="#999">The Bread Tag</text>
  <!-- N1 Bovril DAUBED -->
  <circle cx="540" cy="261" r="38" fill="#f97316" opacity="0.32"/>
  <text x="540" y="265" text-anchor="middle" font-family="sans-serif" font-size="11" font-weight="700" fill="#fff">Bovril</text>
  <!-- G1 -->
  <text x="745" y="265" text-anchor="middle" font-family="sans-serif" font-size="11" font-weight="600" fill="#999">Slop O'Clock</text>
  <!-- O1 -->
  <text x="950" y="265" text-anchor="middle" font-family="sans-serif" font-size="11" font-weight="600" fill="#999">Ratyboy</text>

  <!-- ── ROW 2 ── -->
  <text x="130" y="333" text-anchor="middle" font-family="sans-serif" font-size="11" font-weight="600" fill="#999">Purple Nightmare</text>
  <!-- I2 Potato Smiles DAUBED (diagonal) -->
  <circle cx="335" cy="339" r="38" fill="#f97316" opacity="0.32"/>
  <text x="335" y="333" text-anchor="middle" font-family="sans-serif" font-size="11" font-weight="700" fill="#fff">Potato</text>
  <text x="335" y="347" text-anchor="middle" font-family="sans-serif" font-size="11" font-weight="700" fill="#fff">Smiles</text>
  <text x="540" y="343" text-anchor="middle" font-family="sans-serif" font-size="11" font-weight="600" fill="#999">Shit Shades</text>
  <text x="745" y="343" text-anchor="middle" font-family="sans-serif" font-size="11" font-weight="600" fill="#999">Nose Flaps</text>
  <text x="950" y="343" text-anchor="middle" font-family="sans-serif" font-size="11" font-weight="600" fill="#999">Borzoi</text>

  <!-- ── ROW 3 FREE ── -->
  <text x="130" y="421" text-anchor="middle" font-family="sans-serif" font-size="11" font-weight="600" fill="#999">Dino Nuggets</text>
  <text x="335" y="415" text-anchor="middle" font-family="sans-serif" font-size="11" font-weight="600" fill="#999">Doom of</text>
  <text x="335" y="429" text-anchor="middle" font-family="sans-serif" font-size="11" font-weight="600" fill="#999">the Loom</text>
  <!-- FREE SPACE -->
  <rect x="438" y="378" width="205" height="78" fill="#0d0d00"/>
  <rect x="438" y="378" width="205" height="78" fill="none" stroke="#ffd700" stroke-width="1.5"/>
  <svg x="465" y="385" width="151" height="64" viewBox="0 0 100 100">
    <rect width="100" height="100" fill="#000" rx="6"/>
    <circle cx="50" cy="50" r="43" fill="none" stroke="#fff" stroke-width="11"/>
    <path fill="#fff" d="M50 20 C57 20 63 25 63 31 C63 36 68 38 76 39 C85 40 86 49 82 54 C79 58 72 59 70 65 C68 70 70 76 68 80 C66 84 60 85 56 80 C53 76 50 75 50 75 C50 75 47 76 44 80 C40 85 34 84 32 80 C30 76 32 70 30 65 C28 59 21 58 18 54 C14 49 15 40 24 39 C32 38 37 36 37 31 C37 25 43 20 50 20Z"/>
  </svg>
  <text x="745" y="421" text-anchor="middle" font-family="sans-serif" font-size="11" font-weight="600" fill="#999">Frubes</text>
  <text x="950" y="421" text-anchor="middle" font-family="sans-serif" font-size="11" font-weight="600" fill="#999">Street Sharks</text>

  <!-- ── ROW 4 ── -->
  <text x="130" y="489" text-anchor="middle" font-family="sans-serif" font-size="11" font-weight="600" fill="#999">Alabama Poutine</text>
  <text x="335" y="499" text-anchor="middle" font-family="sans-serif" font-size="11" font-weight="600" fill="#999">Puss Puss</text>
  <text x="540" y="499" text-anchor="middle" font-family="sans-serif" font-size="11" font-weight="600" fill="#999">Choco Taco</text>
  <!-- G4 Surstromming DAUBED (diagonal) -->
  <circle cx="745" cy="495" r="38" fill="#f97316" opacity="0.32"/>
  <text x="745" y="489" text-anchor="middle" font-family="sans-serif" font-size="11" font-weight="700" fill="#fff">Surström-</text>
  <text x="745" y="503" text-anchor="middle" font-family="sans-serif" font-size="11" font-weight="700" fill="#fff">ming</text>
  <text x="950" y="499" text-anchor="middle" font-family="sans-serif" font-size="11" font-weight="600" fill="#999">Ham Fan</text>

  <!-- ── ROW 5 ── -->
  <text x="130" y="577" text-anchor="middle" font-family="sans-serif" font-size="11" font-weight="600" fill="#999">Cursed Socks</text>
  <text x="335" y="577" text-anchor="middle" font-family="sans-serif" font-size="11" font-weight="600" fill="#999">Monster Munch</text>
  <text x="540" y="577" text-anchor="middle" font-family="sans-serif" font-size="11" font-weight="600" fill="#999">Zimmer Frame</text>
  <text x="745" y="577" text-anchor="middle" font-family="sans-serif" font-size="11" font-weight="600" fill="#999">Sprunkler</text>
  <!-- O5 Episode 16 DAUBED (diagonal complete!) -->
  <circle cx="950" cy="573" r="38" fill="#f97316" opacity="0.32"/>
  <text x="950" y="567" text-anchor="middle" font-family="sans-serif" font-size="11" font-weight="700" fill="#fff">Episode</text>
  <text x="950" y="581" text-anchor="middle" font-family="sans-serif" font-size="11" font-weight="700" fill="#fff">16</text>

  <!-- Diagonal bingo line -->
  <line x1="130" y1="261" x2="950" y2="573" stroke="#f97316" stroke-width="3" stroke-dasharray="10,7" opacity="0.5"/>

  <!-- ══════════════════════════════════════════
       BAND 4: BINGO banner  y 618–648
       ══════════════════════════════════════════ -->

  <rect x="28" y="618" width="1024" height="32" rx="5" fill="#c0392b"/>
  <text x="540" y="639" text-anchor="middle" font-family="'Courier New',monospace"
    font-size="13" font-weight="bold" fill="#fff" letter-spacing="2">▶ DIAGONAL — ONE MORE FOR BINGO!</text>

  <!-- ══════════════════════════════════════════
       BAND 5: Featured items  y 658–848
       4 cards, each 246×190, gap=10
       total = 4×246 + 3×10 = 1014, x=33 to x=1047
       ══════════════════════════════════════════ -->

  <!-- Item 1: Ratyboy  x=33 -->
  <rect x="33"  y="658" width="246" height="190" rx="5" fill="#0f0f0f" stroke="#1a1a1a" stroke-width="1"/>
  <svg x="58"  y="665" width="196" height="140" viewBox="0 0 128 128">
    <rect x="44" y="72" width="40" height="30" rx="6" fill="#e07040" stroke="#2a2a2a" stroke-width="3"/>
    <rect x="46" y="98" width="14" height="18" rx="4" fill="#6b92c0" stroke="#2a2a2a" stroke-width="3"/>
    <rect x="68" y="98" width="14" height="18" rx="4" fill="#6b92c0" stroke="#2a2a2a" stroke-width="3"/>
    <ellipse cx="53" cy="118" rx="10" ry="6" fill="#6b3a1a" stroke="#2a2a2a" stroke-width="2.5"/>
    <ellipse cx="75" cy="118" rx="10" ry="6" fill="#6b3a1a" stroke="#2a2a2a" stroke-width="2.5"/>
    <ellipse cx="36" cy="82" rx="9" ry="12" fill="#e8b090" stroke="#2a2a2a" stroke-width="2.5" transform="rotate(15 36 82)"/>
    <ellipse cx="92" cy="82" rx="9" ry="12" fill="#e8b090" stroke="#2a2a2a" stroke-width="2.5" transform="rotate(-15 92 82)"/>
    <circle cx="64" cy="46" r="34" fill="#f0d0b0" stroke="#2a2a2a" stroke-width="4"/>
    <circle cx="34" cy="22" r="18" fill="#f0d0b0" stroke="#2a2a2a" stroke-width="4"/>
    <circle cx="94" cy="22" r="18" fill="#f0d0b0" stroke="#2a2a2a" stroke-width="4"/>
    <circle cx="34" cy="22" r="11" fill="#ffb6c1"/>
    <circle cx="94" cy="22" r="11" fill="#ffb6c1"/>
    <path d="M50 14 Q58 4 66 10 Q72 4 78 14" fill="none" stroke="#e8c860" stroke-width="5" stroke-linecap="round"/>
    <circle cx="50" cy="46" r="12" fill="#fff" stroke="#2a2a2a" stroke-width="3"/>
    <circle cx="78" cy="46" r="12" fill="#fff" stroke="#2a2a2a" stroke-width="3"/>
    <circle cx="52" cy="48" r="7" fill="#4a8ac8"/>
    <circle cx="80" cy="48" r="7" fill="#4a8ac8"/>
    <circle cx="53" cy="49" r="4" fill="#2a2a2a"/>
    <circle cx="81" cy="49" r="4" fill="#2a2a2a"/>
    <circle cx="55" cy="46" r="2" fill="#fff"/>
    <circle cx="83" cy="46" r="2" fill="#fff"/>
    <ellipse cx="64" cy="60" rx="14" ry="10" fill="#e8c0a0"/>
    <ellipse cx="64" cy="64" rx="4" ry="3" fill="#e87090" stroke="#2a2a2a" stroke-width="1.5"/>
    <rect x="28" y="86" width="72" height="14" rx="4" fill="#fff" opacity="0.9"/>
    <text x="64" y="97" text-anchor="middle" font-family="monospace" font-size="8" font-weight="bold" fill="#e07040">#1 RATYBOYS</text>
  </svg>
  <text x="156" y="820" text-anchor="middle" font-family="sans-serif" font-size="13" font-weight="700" fill="#e07040">Ratyboy</text>
  <text x="156" y="836" text-anchor="middle" font-family="monospace" font-size="9" fill="#555">Eric hates him</text>

  <!-- Item 2: Swan Attack  x=289 -->
  <rect x="289" y="658" width="246" height="190" rx="5" fill="#0f0f0f" stroke="#1a1a1a" stroke-width="1"/>
  <svg x="314" y="665" width="196" height="140" viewBox="0 0 128 128">
    <path d="M8 108 Q40 100 64 108 Q88 116 120 104 L120 124 L8 124 Z" fill="#74b9ff" opacity="0.6"/>
    <path d="M30 72 Q10 50 8 30 Q14 20 22 28 Q30 36 34 56 Q38 68 46 72 Z" fill="#f0f0f0" stroke="#2a2a2a" stroke-width="3"/>
    <path d="M98 72 Q118 50 120 30 Q114 20 106 28 Q98 36 94 56 Q90 68 82 72 Z" fill="#f0f0f0" stroke="#2a2a2a" stroke-width="3"/>
    <ellipse cx="64" cy="90" rx="36" ry="24" fill="#f0f0f0" stroke="#2a2a2a" stroke-width="4"/>
    <path d="M58 70 Q42 58 38 42 Q36 30 46 24 Q56 18 64 26" fill="none" stroke="#f0f0f0" stroke-width="18" stroke-linecap="round"/>
    <path d="M58 70 Q42 58 38 42 Q36 30 46 24 Q56 18 64 26" fill="none" stroke="#2a2a2a" stroke-width="5" stroke-linecap="round"/>
    <ellipse cx="68" cy="24" rx="18" ry="14" fill="#f0f0f0" stroke="#2a2a2a" stroke-width="4"/>
    <path d="M82 20 L102 16 L100 24 L82 28 Z" fill="#e67e22" stroke="#2a2a2a" stroke-width="3"/>
    <circle cx="72" cy="20" r="7" fill="#e74c3c" stroke="#2a2a2a" stroke-width="2"/>
    <circle cx="72" cy="20" r="4" fill="#ff0000"/>
    <circle cx="73" cy="19" r="1.5" fill="#fff"/>
  </svg>
  <text x="412" y="820" text-anchor="middle" font-family="sans-serif" font-size="13" font-weight="700" fill="#f0f0f0">Swan Attack</text>
  <text x="412" y="836" text-anchor="middle" font-family="monospace" font-size="9" fill="#555">Terminator 2 style</text>

  <!-- Item 3: Slop O'Clock  x=545 -->
  <rect x="545" y="658" width="246" height="190" rx="5" fill="#0f0f0f" stroke="#1a1a1a" stroke-width="1"/>
  <svg x="570" y="665" width="196" height="140" viewBox="0 0 128 128">
    <rect x="3" y="3" width="122" height="122" rx="4" fill="#111" stroke="#000" stroke-width="2"/>
    <rect x="9" y="9" width="110" height="90" fill="#f4f4f4"/>
    <text x="64" y="20" text-anchor="middle" font-family="sans-serif" font-size="5.5" fill="#222">Please Slop Responsibly.</text>
    <g fill="#1a1a1a">
      <rect x="61.5" y="19" width="5" height="10" transform="rotate(0   64 56)"/>
      <rect x="61.5" y="19" width="5" height="10" transform="rotate(30  64 56)"/>
      <rect x="61.5" y="19" width="5" height="10" transform="rotate(60  64 56)"/>
      <rect x="61.5" y="19" width="5" height="10" transform="rotate(90  64 56)"/>
      <rect x="61.5" y="19" width="5" height="10" transform="rotate(120 64 56)"/>
      <rect x="61.5" y="19" width="5" height="10" transform="rotate(150 64 56)"/>
      <rect x="61.5" y="19" width="5" height="10" transform="rotate(180 64 56)"/>
      <rect x="61.5" y="19" width="5" height="10" transform="rotate(210 64 56)"/>
      <rect x="61.5" y="19" width="5" height="10" transform="rotate(240 64 56)"/>
      <rect x="61.5" y="19" width="5" height="10" transform="rotate(270 64 56)"/>
      <rect x="61.5" y="19" width="5" height="10" transform="rotate(300 64 56)"/>
      <rect x="61.5" y="19" width="5" height="10" transform="rotate(330 64 56)"/>
    </g>
    <line x1="64" y1="56" x2="46" y2="38" stroke="#111" stroke-width="4.5" stroke-linecap="round"/>
    <line x1="64" y1="56" x2="79" y2="32" stroke="#111" stroke-width="2.5" stroke-linecap="round"/>
    <line x1="64" y1="70" x2="64" y2="26" stroke="#c0392b" stroke-width="1.5" stroke-linecap="round"/>
    <circle cx="64" cy="56" r="4" fill="#111"/>
    <circle cx="64" cy="56" r="2" fill="#c0392b"/>
    <rect x="9" y="99" width="110" height="21" fill="#c0392b"/>
    <text x="14" y="108" font-family="sans-serif" font-size="5" font-weight="900" fill="#fff">Ub</text>
    <text x="14" y="115" font-family="sans-serif" font-size="4" fill="#fff">UniForm</text>
    <text x="64" y="114" text-anchor="middle" font-family="Georgia,serif" font-size="13" font-weight="bold" font-style="italic" fill="#fff">Slop-O-Clock</text>
    <text x="113" y="108" text-anchor="end" font-family="sans-serif" font-size="4.5" font-weight="bold" fill="#fff">FACE</text>
  </svg>
  <text x="668" y="820" text-anchor="middle" font-family="sans-serif" font-size="13" font-weight="700" fill="#4a9fd4">Slop O'Clock</text>
  <text x="668" y="836" text-anchor="middle" font-family="monospace" font-size="9" fill="#555">×1001 of them</text>

  <!-- Item 4: Bovril  x=801 -->
  <rect x="801" y="658" width="246" height="190" rx="5" fill="#0f0f0f" stroke="#1a1a1a" stroke-width="1"/>
  <svg x="826" y="665" width="196" height="140" viewBox="0 0 128 128">
    <rect x="28" y="50" width="72" height="66" rx="8" fill="#4a2200" stroke="#2a2a2a" stroke-width="5"/>
    <rect x="22" y="38" width="84" height="18" rx="6" fill="#c8a030" stroke="#2a2a2a" stroke-width="4"/>
    <rect x="28" y="72" width="72" height="28" fill="#c0392b"/>
    <text x="64" y="92" text-anchor="middle" font-family="serif" font-size="14" font-weight="bold" fill="#fff" letter-spacing="1">BOVRIL</text>
    <path d="M54 30 Q52 20 56 12" fill="none" stroke="#ccc" stroke-width="3" stroke-linecap="round" opacity="0.7"/>
    <path d="M64 28 Q62 16 66 8" fill="none" stroke="#ccc" stroke-width="3" stroke-linecap="round" opacity="0.7"/>
    <path d="M74 30 Q72 20 76 12" fill="none" stroke="#ccc" stroke-width="3" stroke-linecap="round" opacity="0.7"/>
    <rect x="34" y="56" width="8" height="30" rx="4" fill="#fff" opacity="0.12"/>
  </svg>
  <text x="924" y="820" text-anchor="middle" font-family="sans-serif" font-size="13" font-weight="700" fill="#8B4513">Bovril</text>
  <text x="924" y="836" text-anchor="middle" font-family="monospace" font-size="9" fill="#555">Beefy tea. Fed an army.</text>

  <!-- ══════════════════════════════════════════
       BAND 6: CTA  y 860–960
       ══════════════════════════════════════════ -->

  <text x="540" y="886" text-anchor="middle" font-family="Georgia,serif" font-size="22" font-weight="900" fill="#fff">Watch. Spot. <tspan fill="#f97316">BINGO.</tspan></text>

  <!-- CTA button -->
  <rect x="290" y="900" width="500" height="52" rx="6" fill="#f97316"/>
  <text x="540" y="922" text-anchor="middle" font-family="sans-serif" font-size="13" font-weight="900" fill="#000">PLAY FREE — NO ACCOUNT NEEDED</text>
  <text x="540" y="940" text-anchor="middle" font-family="'Courier New',monospace" font-size="12" fill="#000">gassy-goos-bingo.pages.dev</text>

  <!-- ══════════════════════════════════════════
       BAND 7: Footer  y 964–1080
       ══════════════════════════════════════════ -->

  <rect x="0" y="964" width="1080" height="116" fill="#030303"/>
  <line x1="0" y1="964" x2="1080" y2="964" stroke="#111" stroke-width="1"/>
  <text x="540" y="1008" text-anchor="middle" font-family="monospace" font-size="11" fill="#2a2a2a" letter-spacing="2">FREE TO PLAY · NO ACCOUNT · ANY DEVICE · PLAY WITH FRIENDS</text>
  <text x="540" y="1040" text-anchor="middle" font-family="monospace" font-size="10" fill="#1e1e1e" letter-spacing="1">Inspired by Sloppy Joe's Bingo · Regulation Podcast Fan Game</text>
</svg>
