<svg xmlns="http://www.w3.org/2000/svg" viewBox="0 0 1200 630" width="1200" height="630">
  <defs>
    <radialGradient id="centreGlow" cx="50%" cy="55%" r="55%">
      <stop offset="0%"   stop-color="#f97316" stop-opacity="0.14"/>
      <stop offset="100%" stop-color="#f97316" stop-opacity="0"/>
    </radialGradient>
    <radialGradient id="vig" cx="50%" cy="50%" r="70%">
      <stop offset="60%" stop-color="transparent"/>
      <stop offset="100%" stop-color="#000" stop-opacity="0.5"/>
    </radialGradient>
    <pattern id="scan" width="1" height="4" patternUnits="userSpaceOnUse">
      <rect width="1" height="3" fill="transparent"/>
      <rect y="3" width="1" height="1" fill="#000" opacity="0.15"/>
    </pattern>
  </defs>

  <!-- Background -->
  <rect width="1200" height="630" fill="#080808"/>
  <rect width="1200" height="630" fill="url(#centreGlow)"/>

  <!-- Bingo grid watermark -->
  <g opacity="0.04" stroke="#fff" stroke-width="1" fill="none">
    <line x1="240" y1="0"   x2="240"  y2="630"/>
    <line x1="480" y1="0"   x2="480"  y2="630"/>
    <line x1="720" y1="0"   x2="720"  y2="630"/>
    <line x1="960" y1="0"   x2="960"  y2="630"/>
    <line x1="0"   y1="126" x2="1200" y2="126"/>
    <line x1="0"   y1="252" x2="1200" y2="252"/>
    <line x1="0"   y1="378" x2="1200" y2="378"/>
    <line x1="0"   y1="504" x2="1200" y2="504"/>
  </g>

  <!-- Scanlines -->
  <rect width="1200" height="630" fill="url(#scan)"/>

  <!-- B I N G O squares -->
  <g font-family="Georgia,'Times New Roman',serif" font-weight="900" text-anchor="middle" dominant-baseline="central">
    <rect x="370" y="60" width="90" height="90" rx="6" fill="#1a0000"/>
    <rect x="370" y="60" width="90" height="90" rx="6" fill="none" stroke="#ff6b6b" stroke-width="2"/>
    <text x="415" y="107" font-size="54" fill="#ff6b6b">B</text>

    <rect x="472" y="60" width="90" height="90" rx="6" fill="#1a1500"/>
    <rect x="472" y="60" width="90" height="90" rx="6" fill="none" stroke="#ffd700" stroke-width="2"/>
    <text x="517" y="107" font-size="54" fill="#ffd700">I</text>

    <rect x="574" y="60" width="90" height="90" rx="6" fill="#1a0a00"/>
    <rect x="574" y="60" width="90" height="90" rx="6" fill="none" stroke="#f97316" stroke-width="2"/>
    <text x="619" y="107" font-size="54" fill="#f97316">N</text>

    <rect x="676" y="60" width="90" height="90" rx="6" fill="#001a00"/>
    <rect x="676" y="60" width="90" height="90" rx="6" fill="none" stroke="#4ade80" stroke-width="2"/>
    <text x="721" y="107" font-size="54" fill="#4ade80">G</text>

    <rect x="778" y="60" width="90" height="90" rx="6" fill="#1a0015"/>
    <rect x="778" y="60" width="90" height="90" rx="6" fill="none" stroke="#f472b6" stroke-width="2"/>
    <text x="823" y="107" font-size="54" fill="#f472b6">O</text>
  </g>

  <!-- Main title -->
  <text x="600" y="272" text-anchor="middle"
    font-family="Georgia,'Times New Roman',serif"
    font-size="88" font-weight="900" letter-spacing="-1" fill="#ffffff">GASSY GOO'S BINGO</text>

  <!-- Orange underline -->
  <rect x="200" y="286" width="800" height="3" rx="1.5" fill="#f97316" opacity="0.8"/>

  <!-- Subtitle -->
  <text x="600" y="338" text-anchor="middle"
    font-family="'Courier New',Courier,monospace"
    font-size="22" letter-spacing="4" fill="#f97316">A REGULATION LORE FAN GAME</text>

  <!-- Tagline -->
  <text x="600" y="395" text-anchor="middle"
    font-family="Georgia,serif" font-size="25" fill="#777">
    Inspired by Sloppy Joe's Bingo · Watch the stream · Call BINGO
  </text>

  <!-- Item cell backgrounds -->
  <g fill="#0f0f0f" stroke="#1f1f1f" stroke-width="1">
    <rect x="68"   y="428" width="120" height="120" rx="6"/>
    <rect x="208"  y="428" width="120" height="120" rx="6"/>
    <rect x="348"  y="428" width="120" height="120" rx="6"/>
    <rect x="488"  y="428" width="120" height="120" rx="6"/>
    <rect x="628"  y="428" width="120" height="120" rx="6"/>
    <rect x="768"  y="428" width="120" height="120" rx="6"/>
    <rect x="908"  y="428" width="120" height="120" rx="6"/>
    <rect x="1048" y="428" width="120" height="120" rx="6"/>
  </g>

  <!-- ===== Inlined item SVGs (nested <svg> with viewBox scales content) ===== -->

  <!-- Borzoi -->
  <svg x="74" y="434" width="108" height="108" viewBox="0 0 128 128">
    <ellipse cx="62" cy="90" rx="32" ry="22" fill="#f5e6c8" stroke="#2a2a2a" stroke-width="4"/>
    <rect x="55" y="58" width="18" height="36" rx="8" fill="#f5e6c8" stroke="#2a2a2a" stroke-width="4"/>
    <ellipse cx="64" cy="52" rx="14" ry="12" fill="#f5e6c8" stroke="#2a2a2a" stroke-width="4"/>
    <path d="M50 52 Q20 54 10 58 Q8 62 14 64 Q18 66 30 64 Q42 62 50 60 Z" fill="#f5e6c8" stroke="#2a2a2a" stroke-width="4" stroke-linejoin="round"/>
    <ellipse cx="11" cy="61" rx="5" ry="4" fill="#e8b4a0" stroke="#2a2a2a" stroke-width="2"/>
    <ellipse cx="9" cy="61" rx="2" ry="1.5" fill="#2a2a2a"/>
    <ellipse cx="13" cy="61" rx="2" ry="1.5" fill="#2a2a2a"/>
    <circle cx="62" cy="48" r="4" fill="#2a2a2a"/>
    <circle cx="63.5" cy="46.5" r="1.5" fill="#fff"/>
    <path d="M74 44 Q84 38 86 52 Q84 62 76 60 Q70 58 72 50 Z" fill="#e8d0b0" stroke="#2a2a2a" stroke-width="3"/>
    <path d="M90 82 Q112 78 114 68 Q116 58 106 56" fill="none" stroke="#f5e6c8" stroke-width="10" stroke-linecap="round"/>
    <path d="M90 82 Q112 78 114 68 Q116 58 106 56" fill="none" stroke="#2a2a2a" stroke-width="4" stroke-linecap="round"/>
    <rect x="42" y="106" width="10" height="18" rx="5" fill="#f5e6c8" stroke="#2a2a2a" stroke-width="3"/>
    <rect x="56" y="106" width="10" height="18" rx="5" fill="#f5e6c8" stroke="#2a2a2a" stroke-width="3"/>
    <rect x="70" y="106" width="10" height="16" rx="5" fill="#f5e6c8" stroke="#2a2a2a" stroke-width="3"/>
  </svg>

  <!-- Bovril -->
  <svg x="214" y="434" width="108" height="108" viewBox="0 0 128 128">
    <rect x="28" y="50" width="72" height="66" rx="8" fill="#4a2200" stroke="#2a2a2a" stroke-width="5"/>
    <rect x="22" y="38" width="84" height="18" rx="6" fill="#c8a030" stroke="#2a2a2a" stroke-width="4"/>
    <rect x="28" y="72" width="72" height="28" fill="#c0392b"/>
    <text x="64" y="92" text-anchor="middle" font-family="serif" font-size="14" font-weight="bold" fill="#fff" letter-spacing="1">BOVRIL</text>
    <path d="M54 30 Q52 20 56 12" fill="none" stroke="#ccc" stroke-width="3" stroke-linecap="round" opacity="0.7"/>
    <path d="M64 28 Q62 16 66 8" fill="none" stroke="#ccc" stroke-width="3" stroke-linecap="round" opacity="0.7"/>
    <path d="M74 30 Q72 20 76 12" fill="none" stroke="#ccc" stroke-width="3" stroke-linecap="round" opacity="0.7"/>
    <rect x="34" y="56" width="8" height="30" rx="4" fill="#fff" opacity="0.12"/>
  </svg>

  <!-- Cucumbers -->
  <svg x="354" y="434" width="108" height="108" viewBox="0 0 128 128">
    <ellipse cx="45" cy="64" rx="18" ry="50" fill="#27ae60" stroke="#2a2a2a" stroke-width="4" transform="rotate(-15 45 64)"/>
    <path d="M30 44 Q48 40 56 52" fill="none" stroke="#1e8449" stroke-width="2" stroke-linecap="round"/>
    <path d="M28 60 Q46 56 56 68" fill="none" stroke="#1e8449" stroke-width="2" stroke-linecap="round"/>
    <path d="M30 76 Q46 74 54 84" fill="none" stroke="#1e8449" stroke-width="2" stroke-linecap="round"/>
    <ellipse cx="37" cy="22" rx="8" ry="6" fill="#7dbb6a" stroke="#2a2a2a" stroke-width="3" transform="rotate(-15 37 22)"/>
    <ellipse cx="82" cy="68" rx="16" ry="46" fill="#2ecc71" stroke="#2a2a2a" stroke-width="4" transform="rotate(15 82 68)"/>
    <path d="M70 50 Q85 46 96 58" fill="none" stroke="#27ae60" stroke-width="2" stroke-linecap="round"/>
    <path d="M68 66 Q85 62 96 74" fill="none" stroke="#27ae60" stroke-width="2" stroke-linecap="round"/>
    <path d="M70 82 Q85 80 94 90" fill="none" stroke="#27ae60" stroke-width="2" stroke-linecap="round"/>
    <ellipse cx="90" cy="26" rx="8" ry="6" fill="#7dbb6a" stroke="#2a2a2a" stroke-width="3" transform="rotate(15 90 26)"/>
  </svg>

  <!-- Swan Attack -->
  <svg x="494" y="434" width="108" height="108" viewBox="0 0 128 128">
    <path d="M8 108 Q40 100 64 108 Q88 116 120 104 L120 124 L8 124 Z" fill="#74b9ff" opacity="0.6"/>
    <path d="M30 72 Q10 50 8 30 Q14 20 22 28 Q30 36 34 56 Q38 68 46 72 Z" fill="#f0f0f0" stroke="#2a2a2a" stroke-width="3" stroke-linejoin="round"/>
    <path d="M98 72 Q118 50 120 30 Q114 20 106 28 Q98 36 94 56 Q90 68 82 72 Z" fill="#f0f0f0" stroke="#2a2a2a" stroke-width="3" stroke-linejoin="round"/>
    <ellipse cx="64" cy="90" rx="36" ry="24" fill="#f0f0f0" stroke="#2a2a2a" stroke-width="4"/>
    <path d="M58 70 Q42 58 38 42 Q36 30 46 24 Q56 18 64 26" fill="none" stroke="#f0f0f0" stroke-width="18" stroke-linecap="round"/>
    <path d="M58 70 Q42 58 38 42 Q36 30 46 24 Q56 18 64 26" fill="none" stroke="#2a2a2a" stroke-width="5" stroke-linecap="round"/>
    <ellipse cx="68" cy="24" rx="18" ry="14" fill="#f0f0f0" stroke="#2a2a2a" stroke-width="4"/>
    <path d="M82 20 L102 16 L100 24 L82 28 Z" fill="#e67e22" stroke="#2a2a2a" stroke-width="3" stroke-linejoin="round"/>
    <path d="M82 24 L98 22" stroke="#c0392b" stroke-width="2"/>
    <circle cx="72" cy="20" r="7" fill="#e74c3c" stroke="#2a2a2a" stroke-width="2"/>
    <circle cx="72" cy="20" r="4" fill="#ff0000"/>
    <circle cx="73" cy="19" r="1.5" fill="#fff"/>
  </svg>

  <!-- Ratyboy -->
  <svg x="634" y="434" width="108" height="108" viewBox="0 0 128 128">
    <rect x="44" y="72" width="40" height="30" rx="6" fill="#e07040" stroke="#2a2a2a" stroke-width="3"/>
    <rect x="46" y="98" width="14" height="18" rx="4" fill="#6b92c0" stroke="#2a2a2a" stroke-width="3"/>
    <rect x="68" y="98" width="14" height="18" rx="4" fill="#6b92c0" stroke="#2a2a2a" stroke-width="3"/>
    <ellipse cx="53" cy="118" rx="10" ry="6" fill="#6b3a1a" stroke="#2a2a2a" stroke-width="2.5"/>
    <ellipse cx="75" cy="118" rx="10" ry="6" fill="#6b3a1a" stroke="#2a2a2a" stroke-width="2.5"/>
    <ellipse cx="36" cy="82" rx="9" ry="12" fill="#e8b090" stroke="#2a2a2a" stroke-width="2.5" transform="rotate(15 36 82)"/>
    <ellipse cx="92" cy="82" rx="9" ry="12" fill="#e8b090" stroke="#2a2a2a" stroke-width="2.5" transform="rotate(-15 92 82)"/>
    <circle cx="64" cy="46" r="34" fill="#f0d0b0" stroke="#2a2a2a" stroke-width="4"/>
    <circle cx="34" cy="22" r="18" fill="#f0d0b0" stroke="#2a2a2a" stroke-width="4"/>
    <circle cx="94" cy="22" r="18" fill="#f0d0b0" stroke="#2a2a2a" stroke-width="4"/>
    <circle cx="34" cy="22" r="11" fill="#ffb6c1"/>
    <circle cx="94" cy="22" r="11" fill="#ffb6c1"/>
    <path d="M50 14 Q58 4 66 10 Q72 4 78 14" fill="none" stroke="#e8c860" stroke-width="5" stroke-linecap="round"/>
    <circle cx="50" cy="46" r="12" fill="#fff" stroke="#2a2a2a" stroke-width="3"/>
    <circle cx="78" cy="46" r="12" fill="#fff" stroke="#2a2a2a" stroke-width="3"/>
    <circle cx="52" cy="48" r="7" fill="#4a8ac8"/>
    <circle cx="80" cy="48" r="7" fill="#4a8ac8"/>
    <circle cx="53" cy="49" r="4" fill="#2a2a2a"/>
    <circle cx="81" cy="49" r="4" fill="#2a2a2a"/>
    <circle cx="55" cy="46" r="2" fill="#fff"/>
    <circle cx="83" cy="46" r="2" fill="#fff"/>
    <ellipse cx="64" cy="60" rx="14" ry="10" fill="#e8c0a0"/>
    <line x1="36" y1="58" x2="52" y2="62" stroke="#888" stroke-width="1.5" stroke-linecap="round"/>
    <line x1="34" y1="63" x2="52" y2="64" stroke="#888" stroke-width="1.5" stroke-linecap="round"/>
    <line x1="76" y1="62" x2="92" y2="58" stroke="#888" stroke-width="1.5" stroke-linecap="round"/>
    <line x1="76" y1="64" x2="94" y2="63" stroke="#888" stroke-width="1.5" stroke-linecap="round"/>
    <rect x="59" y="66" width="8" height="8" rx="2" fill="#fff" stroke="#ccc" stroke-width="1"/>
    <ellipse cx="64" cy="64" rx="4" ry="3" fill="#e87090" stroke="#2a2a2a" stroke-width="1.5"/>
    <rect x="28" y="86" width="72" height="14" rx="4" fill="#fff" stroke="#2a2a2a" stroke-width="2" opacity="0.9"/>
    <text x="64" y="97" text-anchor="middle" font-family="monospace" font-size="8" font-weight="bold" fill="#e07040">#1 RATYBOYS</text>
  </svg>

  <!-- Potato Smiles -->
  <svg x="774" y="434" width="108" height="108" viewBox="0 0 128 128">
    <ellipse cx="64" cy="64" rx="52" ry="52" fill="#e8c454" stroke="#2a2a2a" stroke-width="5"/>
    <ellipse cx="64" cy="62" rx="46" ry="46" fill="#f0d060"/>
    <circle cx="46" cy="50" r="9" fill="#2a2a2a"/>
    <circle cx="82" cy="50" r="9" fill="#2a2a2a"/>
    <circle cx="48.5" cy="47.5" r="3" fill="#fff"/>
    <circle cx="84.5" cy="47.5" r="3" fill="#fff"/>
    <path d="M32 74 Q64 104 96 74" fill="none" stroke="#2a2a2a" stroke-width="7" stroke-linecap="round"/>
    <circle cx="34" cy="72" r="8" fill="#e88040" opacity="0.5"/>
    <circle cx="94" cy="72" r="8" fill="#e88040" opacity="0.5"/>
    <ellipse cx="64" cy="64" rx="52" ry="52" fill="none" stroke="#c8a030" stroke-width="8" stroke-dasharray="6,4" stroke-dashoffset="3"/>
  </svg>

  <!-- Street Sharks -->
  <svg x="914" y="434" width="108" height="108" viewBox="0 0 128 128">
    <ellipse cx="64" cy="72" rx="32" ry="40" fill="#4169e1" stroke="#2a2a2a" stroke-width="4"/>
    <ellipse cx="64" cy="78" rx="20" ry="28" fill="#e0e8ff"/>
    <ellipse cx="64" cy="38" rx="28" ry="26" fill="#4169e1" stroke="#2a2a2a" stroke-width="4"/>
    <path d="M38 46 Q30 52 36 60 Q42 66 50 60 L50 50 Z" fill="#4169e1" stroke="#2a2a2a" stroke-width="3" stroke-linejoin="round"/>
    <path d="M36 56 L40 62 L44 56 L48 62 L50 58" fill="#fff" stroke="#2a2a2a" stroke-width="2" stroke-linejoin="round"/>
    <ellipse cx="58" cy="34" rx="8" ry="9" fill="#fff" stroke="#2a2a2a" stroke-width="2"/>
    <ellipse cx="78" cy="34" rx="8" ry="9" fill="#fff" stroke="#2a2a2a" stroke-width="2"/>
    <ellipse cx="58" cy="34" rx="4" ry="5" fill="#2a2a2a"/>
    <ellipse cx="78" cy="34" rx="4" ry="5" fill="#2a2a2a"/>
    <line x1="50" y1="26" x2="66" y2="30" stroke="#2a2a2a" stroke-width="4" stroke-linecap="round"/>
    <line x1="70" y1="30" x2="86" y2="26" stroke="#2a2a2a" stroke-width="4" stroke-linecap="round"/>
    <polygon points="96,36 108,12 96,52" fill="#4169e1" stroke="#2a2a2a" stroke-width="3" stroke-linejoin="round"/>
    <path d="M44 20 Q64 10 84 20 Q82 12 64 8 Q46 12 44 20 Z" fill="#e74c3c" stroke="#2a2a2a" stroke-width="2"/>
    <path d="M36 26 Q44 20 56 22" fill="none" stroke="#2a2a2a" stroke-width="4" stroke-linecap="round"/>
    <ellipse cx="44" cy="112" rx="16" ry="8" fill="#e74c3c" stroke="#2a2a2a" stroke-width="3"/>
    <ellipse cx="84" cy="112" rx="16" ry="8" fill="#e74c3c" stroke="#2a2a2a" stroke-width="3"/>
    <ellipse cx="30" cy="76" rx="12" ry="18" fill="#4169e1" stroke="#2a2a2a" stroke-width="3" transform="rotate(20 30 76)"/>
    <ellipse cx="98" cy="76" rx="12" ry="18" fill="#4169e1" stroke="#2a2a2a" stroke-width="3" transform="rotate(-20 98 76)"/>
  </svg>

  <!-- Slop O'Clock Clocks -->
  <svg x="1054" y="434" width="108" height="108" viewBox="0 0 128 128">
    <circle cx="64" cy="68" r="46" fill="#e8e0c8" stroke="#2a2a2a" stroke-width="5"/>
    <rect x="40" y="108" width="14" height="10" rx="3" fill="#4a90d9" stroke="#2a2a2a" stroke-width="3"/>
    <rect x="74" y="108" width="14" height="10" rx="3" fill="#4a90d9" stroke="#2a2a2a" stroke-width="3"/>
    <ellipse cx="38" cy="28" rx="14" ry="10" fill="#4a90d9" stroke="#2a2a2a" stroke-width="3"/>
    <ellipse cx="90" cy="28" rx="14" ry="10" fill="#4a90d9" stroke="#2a2a2a" stroke-width="3"/>
    <rect x="58" y="22" width="12" height="16" fill="#4a90d9" stroke="#2a2a2a" stroke-width="2"/>
    <circle cx="64" cy="68" r="40" fill="none" stroke="#4a90d9" stroke-width="4"/>
    <rect x="62" y="30" width="4" height="8" fill="#2a2a2a" rx="1"/>
    <rect x="62" y="98" width="4" height="8" fill="#2a2a2a" rx="1"/>
    <rect x="26" y="66" width="8" height="4" fill="#2a2a2a" rx="1"/>
    <rect x="94" y="66" width="8" height="4" fill="#2a2a2a" rx="1"/>
    <line x1="64" y1="68" x2="42" y2="50" stroke="#2a2a2a" stroke-width="5" stroke-linecap="round"/>
    <line x1="64" y1="68" x2="84" y2="48" stroke="#2a2a2a" stroke-width="3" stroke-linecap="round"/>
    <circle cx="64" cy="68" r="4" fill="#c0392b"/>
    <text x="64" y="88" text-anchor="middle" font-family="monospace" font-size="10" font-weight="bold" fill="#4a90d9">x1001</text>
  </svg>

  <!-- Item labels -->
  <g font-family="'Courier New',Courier,monospace" font-size="11" text-anchor="middle" fill="#555">
    <text x="128"  y="562">Borzoi</text>
    <text x="268"  y="562">Bovril</text>
    <text x="408"  y="562">Cucumbers</text>
    <text x="548"  y="562">Swan Attack</text>
    <text x="688"  y="562">Ratyboy</text>
    <text x="828"  y="562">Potato Smiles</text>
    <text x="968"  y="562">Street Sharks</text>
    <text x="1108" y="562">Slop O'Clock</text>
  </g>

  <!-- Divider -->
  <rect x="60" y="575" width="1080" height="1" fill="#1a1a1a"/>

  <!-- Footer -->
  <text x="600" y="605" text-anchor="middle"
    font-family="'Courier New',Courier,monospace"
    font-size="18" letter-spacing="1" fill="#333">gassy-goos-bingo.pages.dev</text>

  <!-- LIVE badge -->
  <rect x="40" y="40" width="84" height="30" rx="4" fill="#cc0000"/>
  <text x="82" y="55" text-anchor="middle" dominant-baseline="central"
    font-family="'Courier New',Courier,monospace"
    font-size="15" font-weight="bold" letter-spacing="2" fill="#fff">LIVE</text>

  <!-- Vignette -->
  <rect width="1200" height="630" fill="url(#vig)"/>
</svg>
