<svg xmlns="http://www.w3.org/2000/svg" viewBox="0 0 128 128">
  <!-- Fry container -->
  <path d="M30 55 L98 55 L88 110 L40 110 Z" fill="#e74c3c" stroke="#2a2a2a" stroke-width="4" stroke-linejoin="round"/>
  <!-- Container stripes -->
  <path d="M50 55 L44 110" stroke="#fff" stroke-width="3" opacity="0.4"/>
  <path d="M64 55 L64 110" stroke="#fff" stroke-width="3" opacity="0.4"/>
  <path d="M78 55 L84 110" stroke="#fff" stroke-width="3" opacity="0.4"/>
  <!-- Fries -->
  <rect x="38" y="22" width="8" height="36" rx="3" fill="#f1c40f" stroke="#2a2a2a" stroke-width="3"/>
  <rect x="50" y="15" width="8" height="43" rx="3" fill="#e8b84b" stroke="#2a2a2a" stroke-width="3"/>
  <rect x="62" y="20" width="8" height="38" rx="3" fill="#f1c40f" stroke="#2a2a2a" stroke-width="3"/>
  <rect x="74" y="12" width="8" height="46" rx="3" fill="#e8b84b" stroke="#2a2a2a" stroke-width="3"/>
  <rect x="86" y="18" width="8" height="40" rx="3" fill="#f1c40f" stroke="#2a2a2a" stroke-width="3"/>
  <!-- "Special sauce" drizzle (wink wink) -->
  <path d="M38 48 Q55 44 70 50 Q85 56 98 46" fill="none" stroke="#f8f9fa" stroke-width="4" stroke-linecap="round" opacity="0.9"/>
  <path d="M42 58 Q60 52 80 58" fill="none" stroke="#f8f9fa" stroke-width="3" stroke-linecap="round" opacity="0.7"/>
</svg>
