<svg xmlns="http://www.w3.org/2000/svg" viewBox="0 0 128 128">
  <!-- Top bun -->
  <ellipse cx="64" cy="38" rx="52" ry="22" fill="#d4a06a" stroke="#2a2a2a" stroke-width="3"/>
  <ellipse cx="64" cy="30" rx="48" ry="16" fill="#e8b880"/>
  <!-- Sesame seeds -->
  <ellipse cx="48" cy="26" rx="3" ry="2" fill="#c89050" transform="rotate(-15 48 26)"/>
  <ellipse cx="64" cy="23" rx="3" ry="2" fill="#c89050"/>
  <ellipse cx="80" cy="26" rx="3" ry="2" fill="#c89050" transform="rotate(15 80 26)"/>
  <!-- Bacon rashers -->
  <path d="M14 52 Q30 46 50 52 Q70 58 90 50 Q110 42 116 48 L116 62 Q96 56 76 64 Q56 72 36 66 Q18 60 14 66 Z" fill="#c03030" stroke="#2a2a2a" stroke-width="2"/>
  <!-- Bacon fat streaks -->
  <path d="M20 52 Q40 48 60 54 Q80 60 100 52" fill="none" stroke="#f5c6a0" stroke-width="3" stroke-linecap="round" opacity="0.8"/>
  <path d="M24 60 Q44 56 64 62 Q84 68 104 60" fill="none" stroke="#f5c6a0" stroke-width="2" stroke-linecap="round" opacity="0.6"/>
  <!-- Ketchup smear -->
  <path d="M40 58 Q64 62 88 56" fill="none" stroke="#c0392b" stroke-width="4" stroke-linecap="round" opacity="0.7"/>
  <!-- Bottom bun -->
  <ellipse cx="64" cy="74" rx="52" ry="14" fill="#d4a06a" stroke="#2a2a2a" stroke-width="3"/>
  <ellipse cx="64" cy="80" rx="52" ry="10" fill="#c89050" stroke="#2a2a2a" stroke-width="2"/>
  <!-- Label -->
  <text x="64" y="106" text-anchor="middle" font-family="sans-serif" font-size="10" font-weight="bold" fill="#8B4513">BACON BUTTY</text>
  <text x="64" y="118" text-anchor="middle" font-family="sans-serif" font-size="8" fill="#aaa">(British bacon sandwich)</text>
</svg>
