<svg xmlns="http://www.w3.org/2000/svg" viewBox="0 0 128 128">
  <!-- Big yellow shaggy body -->
  <!-- Fur texture (outer bumps) -->
  <ellipse cx="64" cy="76" rx="46" ry="44" fill="#f1c40f" stroke="#2a2a2a" stroke-width="0"/>
  <!-- Fur bumps around body -->
  <circle cx="20" cy="72" r="10" fill="#e8b840" stroke="#2a2a2a" stroke-width="2"/>
  <circle cx="22" cy="54" r="9" fill="#f1c40f" stroke="#2a2a2a" stroke-width="2"/>
  <circle cx="106" cy="72" r="10" fill="#e8b840" stroke="#2a2a2a" stroke-width="2"/>
  <circle cx="104" cy="54" r="9" fill="#f1c40f" stroke="#2a2a2a" stroke-width="2"/>
  <circle cx="34" cy="108" r="10" fill="#e8b840" stroke="#2a2a2a" stroke-width="2"/>
  <circle cx="94" cy="108" r="10" fill="#e8b840" stroke="#2a2a2a" stroke-width="2"/>
  <circle cx="38" cy="32" r="9" fill="#f1c40f" stroke="#2a2a2a" stroke-width="2"/>
  <circle cx="90" cy="32" r="9" fill="#f1c40f" stroke="#2a2a2a" stroke-width="2"/>
  <circle cx="64" cy="26" r="10" fill="#e8b840" stroke="#2a2a2a" stroke-width="2"/>
  <!-- Main body circle (on top of fur bumps) -->
  <ellipse cx="64" cy="76" rx="40" ry="40" fill="#f1c40f" stroke="#2a2a2a" stroke-width="4"/>
  <!-- White t-shirt -->
  <path d="M38 94 Q38 116 50 120 L78 120 Q90 116 90 94 Q78 106 64 106 Q50 106 38 94 Z" fill="#fff" stroke="#2a2a2a" stroke-width="3"/>
  <!-- Big brown eyes -->
  <circle cx="50" cy="68" r="10" fill="#4a2c00" stroke="#2a2a2a" stroke-width="3"/>
  <circle cx="78" cy="68" r="10" fill="#4a2c00" stroke="#2a2a2a" stroke-width="3"/>
  <circle cx="53" cy="65" r="4" fill="#fff"/>
  <circle cx="81" cy="65" r="4" fill="#fff"/>
  <circle cx="53" cy="65" r="2" fill="#2a2a2a"/>
  <circle cx="81" cy="65" r="2" fill="#2a2a2a"/>
  <!-- Big friendly mouth -->
  <path d="M46 84 Q64 96 82 84" fill="none" stroke="#2a2a2a" stroke-width="4" stroke-linecap="round"/>
  <!-- Honey bowl -->
  <ellipse cx="64" cy="36" rx="18" ry="6" fill="#e67e22" stroke="#2a2a2a" stroke-width="3"/>
  <rect x="46" y="36" width="36" height="14" rx="3" fill="#e67e22" stroke="#2a2a2a" stroke-width="3"/>
  <text x="64" y="48" text-anchor="middle" font-family="sans-serif" font-size="8" font-weight="bold" fill="#fff">HONEY</text>
</svg>
