<svg xmlns="http://www.w3.org/2000/svg" viewBox="0 0 128 128">
  <!-- Twiglets bag -->
  <path d="M24 16 Q22 10 32 8 L96 8 Q106 10 104 16 L108 110 Q108 118 96 120 L32 120 Q20 118 20 110 Z" fill="#8B4513" stroke="#2a2a2a" stroke-width="3"/>
  <!-- Bag shine -->
  <path d="M24 16 Q22 10 32 8 L60 8 L56 120 L32 120 Q20 118 20 110 Z" fill="#a05520" opacity="0.4"/>
  <!-- Twiglets logo area (yellow/gold) -->
  <rect x="26" y="24" width="76" height="30" rx="6" fill="#f1c40f"/>
  <text x="64" y="36" text-anchor="middle" font-family="Arial Black, sans-serif" font-size="12" font-weight="900" fill="#8B4513">TWIGLETS</text>
  <text x="64" y="48" text-anchor="middle" font-family="sans-serif" font-size="8" fill="#5a3010">MARMITE FLAVOUR</text>
  <!-- Twig-shaped snacks spilling out -->
  <path d="M36 68 Q34 62 38 58 Q42 54 48 56 Q52 58 54 64 Q56 70 52 74 Q48 78 44 76 Q40 74 36 68 Z" fill="#6b3a10" stroke="#4a2a08" stroke-width="1.5" transform="rotate(-20 45 66)"/>
  <path d="M58 72 Q56 66 60 62 Q64 58 70 60 Q74 62 76 68 Q78 74 74 78 Q70 82 66 80 Q62 78 58 72 Z" fill="#7a4418" stroke="#4a2a08" stroke-width="1.5" transform="rotate(15 67 70)"/>
  <path d="M80 66 Q78 60 82 56 Q86 52 92 54 Q96 56 98 62" fill="none" stroke="#6b3a10" stroke-width="6" stroke-linecap="round"/>
  <!-- Knobbly texture marks on twiglets -->
  <circle cx="40" cy="66" r="2" fill="#4a2a08"/>
  <circle cx="44" cy="70" r="2" fill="#4a2a08"/>
  <circle cx="65" cy="68" r="2" fill="#4a2a08"/>
  <circle cx="70" cy="72" r="2" fill="#4a2a08"/>
  <!-- Marmite jar tiny icon -->
  <text x="64" y="110" text-anchor="middle" font-family="monospace" font-size="7" fill="#f1c40f">Like a twig, but marmite.</text>
</svg>
